<svg width="214" height="199" viewBox="0 0 214 199" fill="none" xmlns="http://www.w3.org/2000/svg">
<rect y="18.4014" width="213.738" height="179.767" rx="30" fill="#FBB500"/>
<mask id="path-2-inside-1_945_145" fill="white">
<path d="M0 30C0 13.4315 13.4315 0 30 0H183.738C200.307 0 213.738 13.4315 213.738 30V149.767C213.738 166.335 200.307 179.767 183.738 179.767H30C13.4315 179.767 0 166.335 0 149.767V30Z"/>
</mask>
<path d="M0 30C0 13.4315 13.4315 0 30 0H183.738C200.307 0 213.738 13.4315 213.738 30V149.767C213.738 166.335 200.307 179.767 183.738 179.767H30C13.4315 179.767 0 166.335 0 149.767V30Z" fill="#FCD015"/>
<path d="M0 0H213.738H0ZM214.738 150.767C214.738 167.887 200.859 181.767 183.738 181.767H30C12.8792 181.767 -1 167.887 -1 150.767L1 149.767C1 165.231 13.9837 177.767 30 177.767H183.738C199.755 177.767 212.738 165.231 212.738 149.767L214.738 150.767ZM30 181.767C12.8792 181.767 -1 167.887 -1 150.767V31C-1 13.8792 12.8792 0 30 0C13.9837 0 1 13.4315 1 30V149.767C1 165.231 13.9837 177.767 30 177.767V181.767ZM183.738 0C200.859 0 214.738 13.8792 214.738 31V150.767C214.738 167.887 200.859 181.767 183.738 181.767V177.767C199.755 177.767 212.738 165.231 212.738 149.767V30C212.738 13.4315 199.755 0 183.738 0Z" fill="white" mask="url(#path-2-inside-1_945_145)"/>
<path d="M94.905 100.187L163.65 31.4411L183.879 51.6695L115.133 120.415L93.9893 141.559L72.7005 120.27L51.1213 98.6906L71.2045 78.6075L92.7837 100.187L93.8443 101.247L94.905 100.187Z" fill="white" stroke="#B28100" stroke-width="3"/>
</svg>
