<svg width="214" height="199" viewBox="0 0 214 199" fill="none" xmlns="http://www.w3.org/2000/svg">
<rect y="18.4014" width="213.738" height="179.767" rx="30" fill="#FBB500"/>
<mask id="path-2-inside-1_945_180" fill="white">
<path d="M0 30C0 13.4315 13.4315 0 30 0H183.738C200.307 0 213.738 13.4315 213.738 30V149.767C213.738 166.335 200.307 179.767 183.738 179.767H30C13.4315 179.767 0 166.335 0 149.767V30Z"/>
</mask>
<path d="M0 30C0 13.4315 13.4315 0 30 0H183.738C200.307 0 213.738 13.4315 213.738 30V149.767C213.738 166.335 200.307 179.767 183.738 179.767H30C13.4315 179.767 0 166.335 0 149.767V30Z" fill="#FCD015"/>
<path d="M0 0H213.738H0ZM214.738 150.767C214.738 167.887 200.859 181.767 183.738 181.767H30C12.8792 181.767 -1 167.887 -1 150.767L1 149.767C1 165.231 13.9837 177.767 30 177.767H183.738C199.755 177.767 212.738 165.231 212.738 149.767L214.738 150.767ZM30 181.767C12.8792 181.767 -1 167.887 -1 150.767V31C-1 13.8792 12.8792 0 30 0C13.9837 0 1 13.4315 1 30V149.767C1 165.231 13.9837 177.767 30 177.767V181.767ZM183.738 0C200.859 0 214.738 13.8792 214.738 31V150.767C214.738 167.887 200.859 181.767 183.738 181.767V177.767C199.755 177.767 212.738 165.231 212.738 149.767V30C212.738 13.4315 199.755 0 183.738 0Z" fill="white" mask="url(#path-2-inside-1_945_180)"/>
<path d="M159.552 102.565L159.582 102.58C160.042 99.7742 160.265 96.9094 160.265 94.0742C160.265 91.5359 160.072 88.9828 159.716 86.4891C160.072 88.968 160.25 91.4766 160.25 93.9852C160.25 96.8648 160.013 99.7445 159.552 102.565ZM46.6954 77.093C46.6211 77.0336 46.5618 76.9742 46.4875 76.9C46.5915 77.0039 46.6954 77.1078 46.8141 77.2117L56.5368 85.5094V85.4945L46.6954 77.093ZM126.347 45.0305H126.362L124.061 32.5914C124.031 32.443 124.002 32.3094 123.957 32.1758C123.972 32.25 124.002 32.3391 124.016 32.4133L126.347 45.0305ZM134.363 126.152L139.023 122.322L152.798 127.205C155.322 123.806 157.445 120.155 159.122 116.28L148.034 106.795L149.013 100.843C149.384 98.6016 149.577 96.3008 149.577 94C149.577 91.6992 149.384 89.3984 149.013 87.157L148.048 81.2344L159.137 71.7492C157.445 67.8898 155.337 64.2234 152.813 60.8242L139.038 65.7078L134.377 61.8781C130.83 58.9688 126.866 56.6828 122.606 55.0797L116.951 52.957L114.294 38.5586C110.101 38.0836 105.869 38.0836 101.677 38.5586L99.0196 52.9867L93.3938 55.1094C89.1633 56.7125 85.2297 58.9984 81.7118 61.893L77.0508 65.7375L63.1868 60.8094C60.6633 64.2086 58.5407 67.8602 56.8633 71.7344L68.0704 81.3086L67.1055 87.2461C66.7344 89.4578 66.5563 91.7289 66.5563 94C66.5563 96.2562 66.7493 98.5422 67.1055 100.754L68.0704 106.691L56.8633 116.266C58.5555 120.125 60.6633 123.791 63.1868 127.191L77.0508 122.263L81.7118 126.107C85.2297 129.002 89.1633 131.287 93.3938 132.891L99.0047 135.043L101.662 149.471C105.848 149.946 110.108 149.946 114.279 149.471L116.936 135.073L122.591 132.95C126.866 131.347 130.815 129.061 134.363 126.152ZM108.074 118.685C103.547 118.685 99.2868 117.527 95.561 115.494C87.4118 111.07 81.875 102.446 81.875 92.5156C81.875 78.0875 93.5719 66.3906 108 66.3906C117.931 66.3906 126.555 71.9273 130.978 80.0766C133.012 83.7875 134.17 88.0477 134.17 92.5898C134.17 107.003 122.488 118.685 108.074 118.685ZM62.7563 138.65C61.9399 138.932 61.0938 138.991 60.2922 138.828C61.1383 139.006 62.029 138.977 62.8899 138.68L74.9727 134.375C74.9579 134.36 74.9282 134.345 74.9133 134.33L62.7563 138.65ZM169.275 77.093L159.552 85.4055C159.552 85.4352 159.567 85.4797 159.567 85.5094L169.275 77.2117C170.329 76.3062 170.923 75 170.938 73.6492C170.893 74.9555 170.299 76.2172 169.275 77.093Z" fill="white" fill-opacity="0.15"/>
<path d="M170.908 113.98C170.982 114.677 170.908 115.39 170.656 116.073L170.522 116.459C167.839 123.936 163.831 130.87 158.692 136.928L158.424 137.24C157.802 137.976 156.97 138.505 156.039 138.757C155.108 139.009 154.123 138.972 153.214 138.65L141.146 134.36C136.719 138.008 131.718 140.897 126.347 142.91L124.017 155.527C123.841 156.477 123.38 157.35 122.696 158.032C122.012 158.713 121.137 159.17 120.187 159.342L119.786 159.416C115.907 160.118 111.972 160.471 108.03 160.47H108.074C112.038 160.47 116.001 160.114 119.86 159.416L120.261 159.342C121.211 159.17 122.086 158.713 122.77 158.032C123.454 157.35 123.915 156.477 124.091 155.527L126.421 142.925C131.795 140.906 136.752 138.041 141.206 134.39L153.259 138.68C154.168 139.001 155.153 139.039 156.084 138.787C157.014 138.535 157.846 138.006 158.469 137.27L158.736 136.958C163.902 130.857 167.865 123.984 170.552 116.518L170.685 116.132C170.923 115.434 170.997 114.692 170.908 113.98Z" fill="#777777" fill-opacity="0.15"/>
<path d="M134.125 92.5156C134.125 88.018 132.982 83.7727 130.978 80.0766C126.555 71.9273 117.93 66.3906 108 66.3906C93.5719 66.3906 81.875 78.0875 81.875 92.5156C81.875 102.446 87.4117 111.07 95.5609 115.494C99.257 117.498 103.487 118.641 108 118.641C122.428 118.641 134.125 106.944 134.125 92.5156ZM91.375 92.5156C91.375 88.0773 93.1117 83.9062 96.2437 80.7594C99.3906 77.6125 103.562 75.8906 108 75.8906C112.438 75.8906 116.609 77.6125 119.756 80.7594C121.303 82.3013 122.529 84.1338 123.364 86.1514C124.2 88.169 124.628 90.3319 124.625 92.5156C124.625 96.9539 122.888 101.125 119.756 104.272C118.214 105.818 116.382 107.044 114.364 107.88C112.347 108.716 110.184 109.144 108 109.141C103.562 109.141 99.3906 107.404 96.2437 104.272C94.6974 102.73 93.4711 100.897 92.6356 98.8799C91.8 96.8623 91.3716 94.6994 91.375 92.5156Z" fill="#B28100"/>
<path d="M120.187 159.342C121.137 159.17 122.012 158.713 122.696 158.032C123.38 157.35 123.841 156.477 124.016 155.527L126.347 142.91C131.718 140.897 136.719 138.008 141.146 134.36L153.214 138.65C154.123 138.972 155.108 139.009 156.039 138.757C156.969 138.505 157.801 137.976 158.424 137.24L158.691 136.928C163.857 130.827 167.835 123.94 170.522 116.459L170.655 116.073C170.908 115.39 170.982 114.677 170.908 113.98C170.774 112.807 170.21 111.694 169.275 110.877L159.582 102.58L159.552 102.565C160.012 99.7446 160.25 96.8649 160.25 93.9852C160.25 91.4766 160.072 88.9532 159.716 86.4891C159.671 86.1625 159.612 85.836 159.567 85.5094C159.567 85.4797 159.552 85.4352 159.552 85.4055L169.275 77.093C170.299 76.2172 170.893 74.9555 170.937 73.6493C170.952 73.0555 170.863 72.4469 170.655 71.868L170.522 71.4821C167.845 64.0012 163.837 57.0663 158.691 51.0125L158.424 50.7008C157.8 49.9668 156.968 49.4392 156.038 49.1875C155.108 48.9357 154.123 48.9717 153.214 49.2907L141.146 53.5805C136.693 49.929 131.735 47.0493 126.362 45.0305H126.347L124.016 32.4133C124.001 32.3391 123.987 32.25 123.957 32.1758C123.743 31.2784 123.272 30.4625 122.603 29.8274C121.934 29.1923 121.094 28.7654 120.187 28.5985L119.786 28.5243C112.052 27.129 103.918 27.129 96.1843 28.5243L95.7835 28.5985C94.8335 28.7706 93.9583 29.2278 93.2742 29.9092C92.5902 30.5906 92.1297 31.464 91.9538 32.4133L89.6085 45.0899C84.278 47.1092 79.314 49.9873 74.9132 53.6102L62.7562 49.2907C61.8472 48.9692 60.862 48.9319 59.9313 49.1838C59.0007 49.4357 58.1687 49.9648 57.546 50.7008L57.2788 51.0125C52.1391 57.0706 48.1317 64.0043 45.4484 71.4821L45.3148 71.868C45.0054 72.7307 44.9516 73.6643 45.1595 74.5568C45.3675 75.4494 45.8286 76.263 46.4874 76.9C46.5617 76.9594 46.621 77.0336 46.6952 77.093L56.5367 85.4946V85.5094C56.0765 88.3 55.8538 91.1352 55.8538 93.9704C55.8538 96.8204 56.0765 99.6704 56.5367 102.446L46.6952 110.848C45.9619 111.476 45.437 112.312 45.1904 113.245C44.9439 114.178 44.9872 115.165 45.3148 116.073L45.4484 116.459C48.1351 123.94 52.1132 130.842 57.2788 136.928L57.546 137.24C58.2734 138.086 59.2382 138.635 60.2921 138.828C61.0937 138.977 61.9398 138.932 62.7562 138.65L74.9132 134.331C74.9281 134.345 74.9577 134.36 74.9726 134.375C79.3812 137.982 84.2945 140.847 89.6085 142.851L91.9538 155.527C92.1297 156.477 92.5902 157.35 93.2742 158.032C93.9583 158.713 94.8335 159.17 95.7835 159.342L96.1843 159.416C100.059 160.114 104.022 160.47 107.985 160.47H108.03C111.978 160.47 115.941 160.114 119.786 159.416L120.187 159.342ZM114.279 149.471C110.087 149.946 105.854 149.946 101.662 149.471L99.0046 135.043L93.3937 132.891C89.1632 131.288 85.2296 129.002 81.7117 126.107L77.0507 122.263L63.1867 127.191C60.6632 123.791 58.5554 120.125 56.8632 116.266L68.0702 106.691L67.1054 100.754C66.7492 98.5422 66.5562 96.2563 66.5562 94C66.5562 91.729 66.7343 89.4579 67.1054 87.2461L68.0702 81.3086L56.8632 71.7344C58.5406 67.8602 60.6632 64.2086 63.1867 60.8094L77.0507 65.7375L81.7117 61.893C85.2296 58.9985 89.1632 56.7125 93.3937 55.1094L99.0195 52.9868L101.676 38.5586C105.848 38.0836 110.108 38.0836 114.294 38.5586L116.951 52.9571L122.606 55.0797C126.866 56.6829 130.83 58.9688 134.377 61.8782L139.038 65.7079L152.813 60.8243C155.337 64.2235 157.444 67.8899 159.137 71.7493L148.048 81.2344L149.013 87.1571C149.384 89.3985 149.577 91.6993 149.577 94C149.577 96.3008 149.384 98.6016 149.013 100.843L148.034 106.795L159.122 116.281C157.441 120.153 155.319 123.819 152.798 127.206L139.023 122.322L134.362 126.152C130.815 129.061 126.866 131.347 122.591 132.95L116.936 135.073L114.279 149.471Z" fill="#B28100"/>
</svg>
